<?xml version="1.0" encoding="UTF-8"?><svg id="Layer_1" xmlns="http://www.w3.org/2000/svg" viewBox="0 0 512 512"><rect width="512" height="512" rx="114.27" ry="114.27" fill="#fff"/><path d="M288,218.82c-.48-8.4-1.04-17.93,0-23.89,1.41-8.11,1.54-13.88-2.41-15.63-4.51-1.95-9.05,3.3-15.03,10.96-.89,1.13-1.6,2.07-2.05,2.55-.23.15-.44.33-.63.53-5.16,5.62-7.68,15.16-10.12,24.38-1.93,7.29-3.92,14.84-7.04,19.37-2.76,4.03-8.21,13.03-14.51,23.44-4.28,7.09-9,14.89-13.43,22.02.33-.87.66-1.75.99-2.63,6.38-16.91,13.61-36.08,15.49-41.94,1.6-4.95,3.82-9.64,6.19-14.61,2.22-4.68,4.52-9.52,6.22-14.58,1.9-5.64.77-12.67-.33-19.46-1.01-6.29-2.05-12.8-.42-16.96,2.17-5.34,2.4-7.35,2.65-10.74.11-1.42.23-3.12.63-5.7.48-2.97-.59-5.71-1.84-8.89-1.92-4.92-4.31-11.05-2.66-21.45.55-3.48-.84-4.9-2.11-5.47-3.37-1.54-5.98,1.7-11.77,8.7-2.02,2.44-4.11,4.97-5.52,6.28-4.17,3.89-8.56,9.99-12.8,15.9-3.66,5.1-7.45,10.37-10.73,13.65-3.98,3.97-6.84,8.86-9.6,13.6-2.61,4.48-5.09,8.7-8.37,12.05-3.56,3.65-8.87,5.86-14.5,8.2-6.01,2.51-12.23,5.1-16.71,9.73-4.3,4.45-7.42,9.89-10.44,15.16-2.92,5.11-5.69,9.94-9.39,13.8-4.22,4.39-7.52,9.57-10.71,14.58-3.16,4.96-6.15,9.65-9.92,13.58-3.75,3.91-8.43,6.96-13.39,10.2-5,3.27-10.18,6.65-14.42,11.05-4.22,4.37-7.47,9.57-10.61,14.6-3.14,5.03-6.1,9.77-9.91,13.68-4.5,4.62-9.09,9.15-13.7,13.69-3.72,3.66-7.43,7.32-11.09,11.03-3.99,4.04,21.85-19.98,17-16.37-4.66,3.48-9.49,7.09-13.72,11.3-7.96,7.92-21.29,50.38-19.68,55.31.38,1.15,1.53,2.18,2.72,2.37.17.03.34.04.53.04.94,0,2.12-.39,3.2-1.9,15.09-21.11,18.46-19.14,20.21-18.07,1.91,1.13,5.4,3.19,10.02-1.42,4.48-4.49,8.1-9.75,11.61-14.84,3.4-4.94,6.61-9.6,10.51-13.59,3.91-4-21.81,20.2-16.85,16.77,5.09-3.52,10.35-7.15,14.74-11.71,4.43-4.59,7.64-10.2,10.75-15.63,3.02-5.29,5.88-10.28,9.7-14.28,4.13-4.31,8.2-8.68,12.28-13.04,4.06-4.35,8.12-8.69,12.22-12.98,4.28-4.47,8.56-10.69,12.7-16.72,4.03-5.87,8.2-11.93,12.16-16.05,3.06-3.17,4.26-3.06,6.21-2.85,3.29.34,6.65.22,11.47-4.73,3.66-3.74,8.96-9.33,14.47-15.14,7.04-7.42,14.42-15.21,19.14-19.93,4.53-4.54,8.38-12.34,12.45-20.6,1.54-3.13,3.1-6.3,4.68-9.22-.07,2.5-.09,5.19-.12,7.99-.1,9.49-.2,20.24-2.17,25.84-1.51,4.3-3.37,8.61-5.24,12.97-2.31,5.39-4.71,10.97-6.56,16.74-2.66,8.23-4.69,16.29-6.67,24.08l-1.72,6.72c-3.43,13.23-5.15,23.44-5.24,31.2-.08,6.01.48,13.2,5.54,15.47,4.4,1.97,10.09-.56,18.47-8.19,3.27-2.99,5.01-7.61,7.02-12.96,2.02-5.37,4.32-11.45,8.57-16.63,3.46-4.19,13.49-18.52,23.19-32.38,2.09-2.99,4.14-5.92,6.06-8.66-.43,1.53-.89,3.11-1.35,4.73-4.79,16.77-10.74,37.65-11.42,45.67-1.09,12.8-1.36,23.24,6.2,31.85,1.44,1.05,4.43,3.24,7.12,1.66,2.55-1.5,2.16-4.56,1.83-7.27-.08-.65-.18-1.33-.24-2.15-1.04-8.45-.06-17.51,3.11-28.52,1.31-4.56,4.04-8.86,6.92-13.4,2.74-4.31,5.56-8.77,7.27-13.69,3.55-10.31,4.6-21.76,5.31-31.69.32-4.39-.03-10.46-.41-16.88Z" fill="#232323"/><path d="M429.59,201.62c1.95-.79,3.92-1.52,5.89-2.25,3.38-1.26,6.75-2.52,10.02-4.02,3.21-1.47,11.14-7.83,22.88-17.38,5.67-4.61,11.53-9.38,13.32-10.5,3.04-1.9,3.07-3.87,2.57-5.19-1.34-3.47-4.89-2.98-21.39-.05-4.98.88-10.13,1.8-12.92,2.03-4.12.34-5.85,3.19-7.25,5.48-1.51,2.48-3.08,5.05-8.12,6.71-1.2.39-2.44.77-3.68,1.15-4.51,1.38-9.17,2.8-13.26,5.34-2.49,1.54-4.81,3.34-7.13,5.14-2.19,1.7-4.38,3.41-6.72,4.85-2.41,1.47-4.94,2.71-7.47,3.96-2.58,1.27-5.15,2.55-7.62,4.03-2.46,1.48-5.02,2.77-7.58,4.06-2.51,1.27-5.02,2.53-7.44,3.95-2.4,1.41-4.7,2.96-7.01,4.51-1.8,1.21-3.64,2.37-5.5,3.51,1.5-2.91,2.98-5.79,4.62-8.61,1.65-2.83,2.32-6.11,2.97-9.29.59-2.86,1.14-5.57,2.33-7.42,1.46-2.29,3.3-4.08,5.25-5.97,1.79-1.73,3.64-3.52,5.25-5.8.58-.84,1.17-1.57,1.75-2.28,3.69-4.53,6.09-8.68,3.34-20.82-.49-2.19-5.01-21.18-5.01-21.18-.28-1.15-1.2-2.03-2.37-2.25-1.15-.23-2.35.28-3.01,1.27-1.67,2.48-4.51,8.19-7.52,14.23-2.4,4.81-4.87,9.79-6.11,11.76-1.05,1.66-3.21,3.09-5.49,4.61-2.8,1.87-5.7,3.81-7.42,6.71-1.77,2.98-1.86,6.56-1.95,9.71-.07,2.61-.13,5.08-1.04,6.73-1.5,2.71-2.79,5.55-4.08,8.39-.94,2.08-1.87,4.15-2.91,6.18-1.01,1.98-2.54,3.76-4.15,5.65-1.9,2.22-3.86,4.51-5.21,7.39-1.37,2.91-1.81,6.13-2.24,9.25-.37,2.66-.72,5.17-1.59,7.21-.87,2.03-2.35,3.87-3.91,5.82-.55.69-1.09,1.43-1.63,2.15-.39.28-.83.58-1.21.85-1.72,1.25-3.37,2.44-5,3.47-6.34,4-11.01,7.34-14.68,10.5-1.23,1.05-2.45,2.05-3.62,3.02-4.59,3.79-8.56,7.06-10.19,11.01-3.18,7.74.76,15.93,5.5,21.03,2.48,2.67,6,4.01,9.75,5.34-.17.69-.4,1.37-.54,2.07-1.36,6.41-.99,12.79-.62,18.96l.18,3.47c.26,5.63.55,12.02,3.6,17.62,1.79,3,4.33,4.67,7,4.67.43,0,.87-.04,1.31-.13,3.35-.69,5.8-3.9,6.38-8.31.44-2.73.19-5.65-.06-8.46-.27-3.12-.55-6.35.16-9.13.59-2.33,1.97-4.64,3.44-7.09.68-1.14,1.36-2.3,2-3.5.11.04.2.09.31.13,3.07,1.11,6.31,1.81,9.44,2.48,2.55.55,5.14,1.1,7.67,1.9,2.2.7,4.35,2.48,6.62,4.38,2.62,2.19,5.34,4.46,8.7,5.5,3.32,1.04,6.7,1.09,9.95,1.14,2.87.04,5.59.08,7.72.84,3.16,1.12,8.79,5.54,13.31,9.1,3.48,2.73,6.49,5.09,8.43,6.11.89.52,1.7.7,2.38.7,1.24,0,2.1-.58,2.41-.83,2.8-2.23,1.94-6.86-2.05-19.62-.46-1.46-.82-2.58-.89-2.84-.38-4.25-4.35-5.15-7.54-5.87-2.25-.51-4.82-1.1-7.21-2.6-1.04-.65-2.1-1.36-3.22-2.09-3.14-2.07-6.69-4.42-10.74-6.38l-4.44-2.19c-3.24-1.61-6.59-3.27-10.02-4.8-2.44-1.09-4.96-2.06-7.47-3.02-2.46-.95-4.92-1.89-7.3-2.96-2.22-1-4.34-2.24-6.42-3.49.33-1.05.69-2.06,1.01-3.12.89-2.98,1.8-5.99,3-8.89,1.07-2.58,2.46-5.01,3.95-7.57,1.34-2.34,2.7-4.69,3.83-7.19.72-1.6,1.18-3.29,1.54-5.01.77-.35,1.43-.77,2.23-1.12,2.6-1.14,5.28-2.33,7.79-3.9,2.43-1.52,4.97-2.81,7.51-4.11,2.45-1.26,4.88-2.51,7.2-3.91,2.51-1.52,4.85-3.28,7.16-5.01,2.16-1.64,4.29-3.25,6.55-4.58l5.75-3.43c2.96-1.77,5.82-3.49,8.58-5.08,2.41-1.38,4.52-3.18,6.56-4.91,2.4-2.03,4.66-3.95,7.17-5.05,1.9-.83,3.8-1.69,5.71-2.56,3.27-1.48,6.56-2.98,9.89-4.32Z" fill="#232323"/></svg>